<svg width="24" height="24" viewBox="0 0 24 24" fill="none" xmlns="http://www.w3.org/2000/svg">
<path d="M0 -0.117188V19.2475L12.0478 24.024L24.0957 19.2475V-0.117188H0ZM21.7144 17.624L14.3112 20.5652L12.0478 21.4593L9.87875 20.5887L2.38127 17.624V2.25928H21.6908V17.624H21.7144Z" fill="white"/>
<path d="M16.8809 4.68262H19.2857V7.08262H16.8809V4.68262Z" fill="white"/>
<path d="M12.0478 18.8238V18.8473L19.286 15.9532V9.36497H16.8811V14.3297L12.0478 16.2591L7.21456 14.3297V7.08262H12.0478V9.48262H9.61941V12.7297L12.0478 13.6709V13.6473H12.0714L14.4527 12.7297V4.68262H4.78613V15.9532L12.0243 18.8473L12.0478 18.8238Z" fill="white"/>
</svg>
